<svg height="200px" width="200px" version="1.1" id="Layer_1" xmlns="http://www.w3.org/2000/svg" xmlns:xlink="http://www.w3.org/1999/xlink" viewBox="0 0 512.052 512.052" xml:space="preserve" fill="#000000"><g id="SVGRepo_bgCarrier" stroke-width="0"></g><g id="SVGRepo_tracerCarrier" stroke-linecap="round" stroke-linejoin="round"></g><g id="SVGRepo_iconCarrier"> <g> <path style="fill:#000000;" d="M104.051,126.026c0-4.4,3.6-10,8-10h12h184h12c4.4,0,8,5.6,8,10v44c0,1.6-0.4,2.4-1.2,3.6 c-1.6,2-4,2.4-6.8,2.4h-208c-2.8,0-5.6-0.8-6.8-3.2c-0.8-1.2-1.2-1.6-1.2-2.8V126.026z"></path> <path style="fill:#000000;" d="M328.051,136.026c100,0,180,80.8,180,180c0,6.4-5.2,12-12,12s-12-5.6-12-12c0-86-68-156-156-156 V136.026L328.051,136.026z"></path> </g> <path style="fill:#000000;" d="M160.452,408.426c0,4.4,3.6,7.6,7.6,7.6c4.4,0,7.6-3.6,7.6-7.6l-7.6-7.6 C163.651,400.826,160.452,404.026,160.452,408.426z M336.051,392.026c4.4,0,7.6-3.6,7.6-7.6l-7.6-7.6c-4,0-7.6,3.6-7.6,7.6 S331.651,392.026,336.051,392.026z M80.051,372.026c0,4.4,3.2,7.6,7.6,7.6s7.6-3.6,7.6-7.6l-7.6-7.6 C83.651,364.426,80.051,368.026,80.051,372.026z M248.452,380.026c4,0,7.6-3.6,7.6-7.6l-7.6-7.6c-4.4,0-7.6,3.6-7.6,7.6 C240.851,376.426,244.051,380.026,248.452,380.026z M114.051,332.026c7.2,4,10.8,7.2,22.8,7.2c0.8,0,1.6,0.4,2.4,0.4 c0.4,0,0.8,0.4,1.2,0c0.8,0,1.2,0,2,0c6-0.8,9.6-3.6,13.6-5.6c2.4-0.8,4.8-2.4,7.6-2.4c6,0,12,0,18.4,0c7.2,4,10.8,6.4,22.8,6.4 c12.4,0,15.6-2.4,22.4-6.4c7.6,0,15.2,0,22.4,0c7.2,4,10.8,7.2,22,7.2c0.8,0,1.6-0.8,2-0.8c9.6-1.2,12.4-2.4,18.4-6.4 c7.6,0,15.2,0,22.4,0c7.6,4,11.2,6.4,23.6,6.4c12,0,15.6-2.4,22.8-6.4c8.4,0,16,0,22.4,0c5.6,4,9.2,5.6,16.4,6.8l0.4,0.4 c1.6,0.4,3.6,0.8,6,0.8c0.4,0,0.4,0,0.8,0c-2,12-7.6,44.4-14.8,66.8c-4.8,10-10.8,19.2-18,28l0,0c-9.6,10-20.8,20-25.6,24.8l0,0l0,0 c-19.6,14.8-42.4,24.4-67.6,28.4l0,0c-50.4,0-98,1.2-114.4,1.6c-3.2,0-6-0.4-8.8-0.4c-10.4-2.8-45.2-12.8-67.2-24.8 c-6-4-12-8.8-17.6-14l0,0c-6-10-28.4-36.4-36-50.4c-1.2-2.8-2.4-6.4-3.2-9.2c-8.8-27.6-5.2-59.2-5.2-59.2h18 c7.2,4,10.8,6.4,22.8,6.4s15.6-2.4,22.8-6.4C98.452,332.026,106.051,332.026,114.051,332.026z M152.051,367.626L152.051,367.626 L152.051,367.626L152.051,367.626z"></path> <path style="fill:#FFFFFF;" d="M336.051,392.026c-4,0-7.6-3.6-7.6-7.6c0-4.4,3.6-7.6,7.6-7.6l7.6,7.6 C343.651,388.426,340.051,392.026,336.051,392.026z"></path> <path style="fill:#000000;" d="M76.452,4.026h24.4c125.6,0,207.6,56,207.6,91.6v20.4h-184v-20.8 C124.051,52.426,76.452,56.026,76.452,4.026z"></path> <g> <path style="fill:#FFFFFF;" d="M248.452,380.026c-4.4,0-7.6-3.6-7.6-7.6c0-4.4,3.6-7.6,7.6-7.6l7.6,7.6 C256.051,376.426,252.452,380.026,248.452,380.026z"></path> <path style="fill:#FFFFFF;" d="M168.051,416.026c-4,0-7.6-3.2-7.6-7.6s3.6-7.6,7.6-7.6l7.6,7.6 C175.651,412.826,172.051,416.026,168.051,416.026z"></path> <path style="fill:#FFFFFF;" d="M87.651,364.426l7.6,7.6c0,4.4-3.6,7.6-7.6,7.6c-4.4,0-7.6-3.6-7.6-7.6 S83.651,364.426,87.651,364.426z"></path> </g> <path d="M496.051,332.026c-8.8,0-16-7.2-16-16c0-83.6-68-152-152-152c-2.4,0-4-1.6-4-4s1.6-4,4-4c88.4,0,160,71.6,160,160 c0,4.4,3.6,8,8,8s8-3.6,8-8c0-97.2-78.8-176-176-176c-2.4,0-4-1.6-4-4s1.6-4,4-4c101.6,0,184,82.4,184,184 C512.052,324.826,505.251,332.026,496.051,332.026z"></path> <path d="M308.051,120.026c-2.4,0-4-1.6-4-4v-20.4c0-30.8-77.2-87.6-203.6-87.6h-20c1.2,22.8,12.4,32.8,24.4,43.6 c11.6,10.4,23.6,21.2,23.6,43.6v20.8c0,2.4-1.6,4-4,4s-4-1.6-4-4v-20.8c0-18.4-9.6-27.2-20.8-37.6c-12.8-11.6-26.8-24.4-26.8-53.6 c0-2.4,1.6-4,4-4h24.4c127.2,0,211.6,57.6,211.6,95.6v20.4C312.051,118.426,310.452,120.026,308.051,120.026z"></path> <path d="M136.851,344.426c-9.2,0-14.4-2.4-18.8-4.4c-1.6-0.8-3.6-1.6-5.2-2.4c-2.8-0.8-6-1.6-10-1.6s-7.2,0.4-10,1.2 c-2,0.8-3.6,1.6-5.2,2.4c-4.4,2-9.2,4.4-18.8,4.4c-9.2,0-14.4-2.4-18.8-4.4c-1.6-0.8-3.6-1.6-5.2-2.4c-2.8-0.8-6-1.6-10-1.6 c-3.6,0-6.8,0.4-9.6,1.2c-2,0.8-4,1.6-6,2.4c-3.6,1.6-8,3.6-14.8,4c-2.4,0-4-1.6-4.4-3.6s1.6-4,3.6-4.4c5.6-0.4,8.4-2,12-3.6 c2-0.8,4.4-2,6.8-2.8c3.6-1.2,7.2-1.6,12-1.6s8.8,0.4,12.4,2c2.4,0.8,4.4,1.6,6.4,2.4c4,2,7.6,3.6,15.2,3.6c7.6,0,11.2-1.6,15.2-3.6 c2-0.8,4-2,6.4-2.4c3.6-1.2,7.6-1.6,12.4-1.6s8.8,0.4,12.4,2c2.4,0.8,4.4,1.6,6.4,2.4c4,2,7.6,3.6,15.2,3.6c0.8,0,1.6,0,2.4,0 c0.4,0,0.8,0,1.2,0s1.2,0,1.6,0c4.8-0.8,7.2-2,10.4-3.2c0.8-0.4,1.6-0.8,2-0.8c4-1.6,8.8-3.2,16.4-3.2c4.8,0,8.8,0.4,12.4,2 c2.4,0.8,4.4,1.6,6.4,2.4c4,2,7.6,3.6,15.2,3.6c7.6,0,11.2-1.6,15.2-3.6c2-0.8,4-2,6-2.4c3.6-1.2,7.6-2,12.4-2c4.8,0,8.8,0.4,12.4,2 c2.4,0.8,4.4,1.6,6.4,2.8c3.6,1.6,7.2,3.2,13.2,3.6c0.4,0,0.4,0,0.8,0c0.8,0,1.2,0,1.6,0c5.6-0.8,8.8-2,12-3.6 c1.6-0.8,3.6-1.6,5.6-2.4c3.6-1.2,7.6-2,12-2c4.8,0,8.8,0.4,12.8,1.6c2.4,0.8,4.4,1.6,6.4,2.4c4.4,2,8,3.6,15.6,3.6 s11.2-1.6,15.2-3.6c2-0.8,4-2,6.4-2.4c3.6-1.2,7.6-1.6,12.4-1.6c2.4,0,4,1.6,4,4s-1.6,4-4,4c-4,0-7.2,0.4-10,1.2 c-2,0.8-3.6,1.6-5.2,2.4c-4.4,2-9.2,4.4-18.8,4.4s-14.4-2.4-19.2-4.4c-2-0.8-3.6-1.6-5.6-2.4c-2.8-0.8-6.4-1.6-10-1.6 c-4,0-6.8,0.4-9.6,1.2c-1.6,0.4-3.2,1.2-4.8,2c-3.6,1.6-7.6,3.6-14.4,4.4c-0.4,0-0.8,0-1.2,0s-0.8,0.4-1.2,0.4 c-8.8,0-13.6-2.4-18-4.4c-2-0.8-3.6-1.6-5.6-2.4c-2.8-0.8-6-1.6-10-1.6s-7.2,0.4-10,1.2c-2,0.8-3.6,1.2-5.2,2.4 c-4.4,2-9.2,4.4-18.8,4.4c-9.2,0-14.4-2.4-18.8-4.4c-1.6-0.8-3.6-1.6-5.2-2.4c-2.8-0.8-6-1.6-10-1.6c-6.8,0-10,1.2-13.2,2.8 c-0.8,0.4-1.2,0.8-2,0.8c-3.2,1.6-6.8,3.2-12.8,4c-0.8,0-1.2,0.4-2.4,0.4c-0.4,0-0.8,0-1.6,0 C138.851,344.426,138.051,344.426,136.851,344.426z"></path> <path d="M408.051,344.026c-0.8,0-1.2,0-1.2,0h-0.4c-2.4,0-4.4,0-6-0.4c-0.4,0-0.8,0-1.2,0c-4.8-0.8-8.4-2.4-11.2-3.6 c-1.6-0.8-3.6-1.6-5.2-2c-2.8-0.8-6-1.2-10-1.2c-2.4,0-4-1.6-4-4s1.6-4,4-4c4.8,0,8.8,0.4,12.4,1.6c2.4,0.8,4.4,1.6,6,2.4 c2.8,1.2,5.2,2.4,9.2,3.2c0.4,0,0.4,0,0.8,0c1.2,0,3.2,0,5.2,0h1.2c0.4,0,0.8,0,1.2,0c5.6-0.4,8-1.6,11.2-3.2c1.6-0.8,3.2-2,5.6-2.8 c2-0.8,4.4,0.4,5.2,2.4s-0.4,4.4-2.4,5.2c-1.6,0.8-3.2,1.2-4.4,2C420.051,341.626,416.051,344.026,408.051,344.026L408.051,344.026z "></path> <path d="M168.051,420.026c-6.4,0-11.6-5.2-11.6-11.6s5.2-11.6,11.6-11.6c2.4,0,4,1.6,4,4s-1.6,4-4,4c-2,0-3.6,1.6-3.6,3.6 s1.6,3.6,3.6,3.6s3.6-1.6,3.6-3.6c0-2.4,1.6-4,4-4s4,1.6,4,4C179.651,414.826,174.452,420.026,168.051,420.026z"></path> <path d="M248.452,384.026c-6.4,0-11.6-5.2-11.6-11.6s5.2-11.6,11.6-11.6c2.4,0,4,1.6,4,4s-1.6,4-4,4c-2,0-3.6,1.6-3.6,3.6 s1.6,3.6,3.6,3.6s3.6-1.6,3.6-3.6c0-2.4,1.6-4,4-4s4,1.6,4,4C260.051,378.826,254.851,384.026,248.452,384.026z"></path> <path d="M336.051,396.026c-6.4,0-11.6-5.2-11.6-11.6s5.2-11.6,11.6-11.6c2.4,0,4,1.6,4,4s-1.6,4-4,4c-2,0-3.6,1.6-3.6,3.6 s1.6,3.6,3.6,3.6s3.6-1.6,3.6-3.6c0-2.4,1.6-4,4-4s4,1.6,4,4C347.651,390.826,342.452,396.026,336.051,396.026z"></path> <path d="M87.651,384.026c-6.4,0-11.6-5.2-11.6-11.6s5.2-11.6,11.6-11.6c2.4,0,4,1.6,4,4s-1.6,4-4,4c-2,0-3.6,1.6-3.6,3.6 s1.6,3.6,3.6,3.6s3.6-1.6,3.6-3.6c0-2.4,1.6-4,4-4s4,1.6,4,4C99.252,378.826,94.051,384.026,87.651,384.026z"></path> <path d="M152.051,371.626c-0.4,0-1.2,0-1.6-0.4c-1.6-0.8-2.4-2-2.4-3.6l0,0c0-2.4,1.6-4,4-4c1.6,0,3.2,0.8,3.6,2.4s0.4,3.2-0.8,4.4 C154.051,371.226,152.851,371.626,152.051,371.626z"></path> <path d="M116.051,424.026L116.051,424.026c-2.4,0-4-1.6-4-4s1.6-4,4-4c1.6,0,2.8,0.8,3.6,2.4c0.4,0.4,0.4,1.2,0.4,1.6 C120.051,422.426,118.452,424.026,116.051,424.026z"></path> <path d="M232.051,454.026c-1.2,0-2-0.4-2.8-1.2c-0.8-0.8-1.2-1.6-1.2-2.8c0-1.2,0.4-2,1.2-2.8c1.6-1.6,4-1.6,5.6,0 c0.8,0.8,1.2,1.6,1.2,2.8c0,1.2-0.4,2-1.2,2.8C234.051,453.626,233.251,454.026,232.051,454.026z"></path> <path d="M260.452,512.026h-88c-94.8,0-172-77.2-172-172v-12c0-67.6,40.4-129.6,102.4-157.2c2-0.8,4.4,0,5.2,2s0,4.4-2,5.2 c-59.6,26.4-97.6,85.2-97.6,150v12c0,90.4,73.6,164,164,164h88c90.4,0,163.6-73.6,163.6-164v-12c0-64.8-38.4-123.6-97.6-150 c-2-0.8-2.8-3.2-2-5.2s3.2-2.8,5.2-2c62.4,27.6,102.4,89.2,102.4,157.2v12C432.051,434.826,354.851,512.026,260.452,512.026z"></path> <path d="M320.051,180.026h-208c-4.8,0-8.4-1.6-10.4-5.2l-0.4-0.4c-0.8-1.2-1.2-2.4-1.2-4.8v-44c0-6.4,5.2-14,12-14h208 c6.8,0,12,7.6,12,14v44c0,2.8-1.2,4.4-2,5.6C327.251,180.026,322.051,180.026,320.051,180.026z M112.051,120.026c-1.6,0-4,3.2-4,6 v44c0,0,0,0.4,0.4,0.4l0.4,0.4c0,0.4,0.8,1.2,3.6,1.2h208c2.8,0,3.2-0.4,3.2-0.8c0.4-0.4,0.4-0.8,0.8-1.2v-44.4c0-2.8-2.4-6-4-6 h-208.4V120.026z"></path> <path d="M166.452,492.826c-0.4,0-0.8,0-0.8,0c-1.2,0-2,0-2.8,0c-2,0-4,0-6,0c-24.8-2.4-48.8-11.2-69.2-25.2 c-6.4-4.4-12.4-8.8-17.6-13.6l-0.4-0.4c-15.6-14.4-28.4-32.4-36.8-51.6c-1.2-2.8-2.4-5.6-3.6-8.4c-6.4-17.2-9.6-35.2-9.6-53.6v-12 c0-58,34-112,86.8-137.2c2-0.8,4.4,0,5.2,2s0,4.4-2,5.2c-50,24-82.4,74.8-82.4,130v12c0,17.2,3.2,34.4,9.2,50.4c1.2,2.8,2,5.2,3.2,8 c8,18,20,34.8,34.8,48.8l0.4,0.4c5.2,4.8,10.8,9.2,16.8,13.2c19.2,13.2,42,21.6,65.2,24c1.6,0,3.2,0,4.8,0c1.2,0,2.4,0,3.6,0l94-0.8 h20.4c24.8-4,46.8-13.2,65.6-27.6c0.4-0.4,0.8-0.4,1.2-0.4c8.8-6.8,16.8-14.8,24-23.6l0,0c6.8-8.4,12.4-17.2,17.2-26.8 c10-20,15.2-42.8,15.6-64.8v-12.8c0-55.2-32.4-106-82-130c-2-0.8-2.8-3.2-2-5.2s3.2-2.8,5.2-2c52.8,25.2,86.8,79.2,86.8,137.2v12 c0,24-5.6,47.6-16.4,68.8c-5.2,10-11.2,19.6-18.4,28.4l0,0l0,0c-7.6,9.6-16.4,18-26.4,25.6c0,0,0,0-0.4,0c-0.4,0.4-0.8,0.4-0.8,0.4 c-19.6,14.8-42.4,24-68.4,28.4c-0.4,0-0.4,0-0.8,0h-20.4l-93.2,0.8C166.851,492.826,166.851,492.826,166.452,492.826z"></path> </g></svg>